<svg width="21" height="21" viewBox="0 0 21 21" fill="none" xmlns="http://www.w3.org/2000/svg">
<path d="M11.9277 0.0943212C9.43524 -0.234824 6.90293 0.312873 4.79833 1.63628C2.69372 2.95969 1.15897 4.96942 0.477463 7.29439C-0.204044 9.61935 0.0137216 12.1025 1.09055 14.2854C2.16738 16.4682 4.03054 18.2033 6.336 19.1703C6.27366 18.4021 6.33088 17.6293 6.5058 16.8773C6.6985 16.0383 7.8558 11.4143 7.8558 11.4143C7.62535 10.9184 7.51018 10.3803 7.5183 9.83732C7.5183 8.35232 8.41101 7.24432 9.52142 7.24432C9.72091 7.24153 9.91868 7.28002 10.1013 7.35715C10.2839 7.43429 10.4471 7.54827 10.5797 7.69134C10.7123 7.83442 10.8113 8.00323 10.8699 8.18631C10.9285 8.36939 10.9454 8.56243 10.9193 8.75232C10.9193 9.65232 10.3173 11.0143 10.0027 12.2923C9.9405 12.5267 9.93656 12.7718 9.99116 13.0079C10.0458 13.2441 10.1574 13.4645 10.317 13.6517C10.4766 13.8388 10.6798 13.9873 10.9102 14.0852C11.1406 14.1831 11.3917 14.2277 11.6433 14.2153C13.6204 14.2153 14.9454 11.7843 14.9454 8.91432C14.9454 6.71432 13.4277 5.06632 10.6298 5.06632C9.96035 5.04135 9.29265 5.14724 8.66718 5.37757C8.04172 5.60791 7.47154 5.95787 6.99127 6.40621C6.51099 6.85455 6.13065 7.39192 5.87332 7.9857C5.61599 8.57947 5.48706 9.21725 5.49434 9.86032C5.46451 10.5736 5.70424 11.2733 6.16934 11.8303C6.25625 11.8926 6.31971 11.9803 6.35014 12.0803C6.38058 12.1802 6.37635 12.2869 6.33809 12.3843C6.29017 12.5683 6.16934 13.0073 6.12142 13.1683C6.11145 13.2229 6.08827 13.2745 6.05374 13.3189C6.0192 13.3634 5.97428 13.3994 5.9226 13.4241C5.87091 13.4488 5.81391 13.4615 5.75617 13.4612C5.69843 13.4609 5.64157 13.4476 5.59017 13.4223C4.1485 12.8683 3.46934 11.3453 3.46934 9.60632C3.46934 6.75932 5.95267 3.35132 10.9214 3.35132C14.8756 3.35132 17.5048 6.12832 17.5048 9.09832C17.5048 13.0073 15.237 15.9463 11.886 15.9463C11.3852 15.9617 10.8884 15.8556 10.4416 15.6378C9.99475 15.42 9.61236 15.0976 9.32976 14.7003C9.32976 14.7003 8.72767 17.0163 8.60892 17.4543C8.36652 18.211 8.00883 18.9291 7.54746 19.5853C8.50892 19.8653 9.50788 20.0053 10.512 20.0013C11.8804 20.0024 13.2354 19.7443 14.4997 19.2419C15.764 18.7395 16.9126 18.0026 17.8798 17.0734C18.847 16.1443 19.6138 15.0411 20.1363 13.827C20.6587 12.613 20.9266 11.3119 20.9245 9.99832C20.9233 7.58332 20.0118 5.25032 18.3585 3.4301C16.7052 1.60988 14.4218 0.425386 11.9298 0.0953211L11.9277 0.0943212Z" fill="white"/>
</svg>
